<?xml version="1.0" encoding="utf-8"?>
<!-- Generator: Adobe Illustrator 16.0.3, SVG Export Plug-In . SVG Version: 6.00 Build 0)  -->
<!DOCTYPE svg PUBLIC "-//W3C//DTD SVG 1.1//EN" "http://www.w3.org/Graphics/SVG/1.1/DTD/svg11.dtd">
<svg version="1.1" id="图层_1" xmlns="http://www.w3.org/2000/svg" xmlns:xlink="http://www.w3.org/1999/xlink" x="0px" y="0px"
	 width="64px" height="64px" viewBox="0 0 64 64" enable-background="new 0 0 64 64" xml:space="preserve">
<path fill="#ffffff" stroke="#000000" stroke-width="0.25" stroke-miterlimit="10" d="M32,0
	C14.327,0,0,14.327,0,32c0,17.674,14.327,32,32,32s32-14.326,32-32C64,14.327,49.673,0,32,0z M49.631,41.193l-11.77,15.846
	l-10.975,0.057L15.64,41.438l7.717-14.294l-0.014,0.022l-5.002-6.218l-3.797-8.041c0,0-1.093-2.016,0.718-2.001l8.13,4.61
	l3.997,5.292l9.712,0.001l3.506-5.293l8.131-4.61c1.812-0.015,0.72,2.001,0.716,2.001l-3.795,8.041l-4.792,5.772L49.631,41.193z"/>
</svg>
